<svg version="1.2" baseProfile="tiny-ps" xmlns="http://www.w3.org/2000/svg" viewBox="0 0 199 344" width="199" height="344">
	<title>Path 4</title>
	<style>
		tspan { white-space:pre }
		.txt0 { font-size: 86px;fill: #000000;font-weight: 700;font-family: "LeagueSpartan-Bold", "League Spartan" } 
		.shp1 { fill: #000000 } 
	</style>
	<text id="S " style="transform: matrix(1,0,0,1,144,342)" >
		<tspan x="0" y="0" class="txt0">S
</tspan>
	</text>
	<text id="W " style="transform: matrix(1,0,0,1,51,343)" >
		<tspan x="0" y="0" class="txt0">W
</tspan>
	</text>
	<text id="J " style="transform: matrix(1,0,0,1,3,342)" >
		<tspan x="0" y="0" class="txt0">J
</tspan>
	</text>
	<path id="Path 4" class="shp1" d="M61.95 26.59L22.62 52.27L22.17 68.6L21.73 84.92L87.18 123.36L152.49 161.81L152.49 178.43C152.49 187.63 152.19 195.2 151.75 195.2C151.3 195.2 140.17 188.23 127.11 179.62C114.05 171.01 102.77 164.03 102.03 164.03C101.28 164.03 90 171.01 76.94 179.62C64.03 188.23 52.9 195.2 52.45 195.2C52.01 195.2 51.56 180.95 51.56 163.59L51.56 132.12L37.17 123.51C29.3 118.91 22.62 115.2 22.32 115.5C22.03 115.79 22.03 146.22 22.17 183.03L22.62 249.97L62.4 224L102.03 198.17L138.09 221.62C157.83 234.53 175.79 246.26 178.17 247.74L182.18 250.42L182.18 198.02L182.18 145.48L169.11 137.91C161.99 133.75 132.6 116.39 103.81 99.47L51.41 68.6L75.61 52.57C88.97 43.66 100.69 36.39 101.73 36.39C102.77 36.39 114.64 43.51 128.15 52.12L152.49 68L152.49 83.29L152.49 98.58L166.44 106.74C174.16 111.34 180.84 115.05 181.43 115.05C181.88 115.05 182.03 100.95 181.88 83.59L181.43 52.27L142.1 26.59C120.43 12.34 102.47 0.77 102.03 0.77C101.58 0.77 83.62 12.34 61.95 26.59Z" />
</svg>